<svg id="Capa_1" enable-background="new 0 0 512.011 512.011" height="512" viewBox="0 0 512.011 512.011" width="512" xmlns="http://www.w3.org/2000/svg"><path d="m373.156 351.95c-9.27 4.16-16.94 11.71-21.16 21.21-.36-.3-25.92-25.88-32.87-32.83 7.62-6.5 14.72-13.6 21.22-21.22 6.94 6.93 32.46 32.45 32.81 32.84z" fill="#003481"/><circle cx="195.516" cy="195.5" fill="#0097f0" r="195.5"/><path d="m391.016 195.5c0 107.63-87.43 195.23-195 195.5v-391c107.57.27 195 87.87 195 195.5z" fill="#0052c2"/><circle cx="195.516" cy="195.5" fill="#e0f4ff" r="165.5"/><path d="m361.016 195.5c0 91.09-73.97 165.23-165 165.5v-331c91.03.27 165 74.41 165 165.5z" fill="#b8e0f5"/><path d="m498.303 432.074-75.001-75c-18.297-18.298-47.912-18.3-66.213 0-18.255 18.255-18.255 47.958 0 66.213l75.001 75c18.297 18.298 47.912 18.3 66.213 0 18.255-18.255 18.255-47.958 0-66.213z" fill="#fe9022"/><path d="m286.016 121h-180c-8.284 0-15 6.716-15 15v110c0 30.327 24.673 55 55 55h100c30.327 0 55-24.673 55-55v-110c0-8.284-6.716-15-15-15z" fill="#fdbf00"/><path d="m301.016 136v110c0 30.33-24.67 55-55 55h-50v-180h90c8.28 0 15 6.72 15 15z" fill="#fe9022"/><path d="m196.016 61c-33.084 0-60 26.916-60 60v30c0 8.284 6.716 15 15 15s15-6.716 15-15v-30c0-16.542 13.458-30 30-30s30 13.458 30 30v30c0 8.284 6.716 15 15 15s15-6.716 15-15v-30c0-33.084-26.916-60-60-60z" fill="#0052c2"/><path d="m256.016 121v30c0 8.28-6.72 15-15 15s-15-6.72-15-15v-30c0-16.54-13.46-30-30-30v-30c33.08 0 60 26.92 60 60z" fill="#003481"/></svg>